<svg width="15" height="16" viewBox="0 0 15 16" fill="none" xmlns="http://www.w3.org/2000/svg">
<path d="M12.8082 0H2.12513C0.918973 0 0 0.984616 0 2.27692V13.7231C0 15.0154 0.918973 16 2.12513 16H12.8082C14.0144 16 14.9333 15.0154 14.9333 13.7231V2.27692C14.9333 0.984616 14.0144 0 12.8082 0ZM7.46667 12.8C9.93641 12.8 11.9467 10.7077 11.9467 8.18462C11.9467 7.75385 11.8892 7.26154 11.7744 6.89231H13.0379V13.4154C13.0379 13.7231 12.8082 14.0308 12.4636 14.0308H2.46975C2.18257 14.0308 1.89539 13.7846 1.89539 13.4154V6.83077H3.21641C3.10154 7.26154 3.0441 7.69231 3.0441 8.12308C2.98667 10.7077 4.99692 12.8 7.46667 12.8ZM7.46667 10.9538C5.85846 10.9538 4.59487 9.6 4.59487 7.93846C4.59487 6.27692 5.85846 4.92308 7.46667 4.92308C9.07487 4.92308 10.3385 6.27692 10.3385 7.93846C10.3385 9.66154 9.07487 10.9538 7.46667 10.9538ZM12.9805 4.36923C12.9805 4.73846 12.6933 5.04615 12.3487 5.04615H10.7405C10.3959 5.04615 10.1087 4.73846 10.1087 4.36923V2.70769C10.1087 2.33846 10.3959 2.03077 10.7405 2.03077H12.3487C12.6933 2.03077 12.9805 2.33846 12.9805 2.70769V4.36923Z" fill="#333333"/>
</svg>
