<svg width="16" height="10" viewBox="0 0 16 10" fill="none" xmlns="http://www.w3.org/2000/svg">
<path d="M15.8514 8.33947C15.8514 8.27581 15.7877 8.27582 15.7877 8.21216C15.5331 7.70287 14.9601 7.06628 14.1962 6.36601C13.8143 6.04771 13.6233 5.79307 13.4959 5.66575C13.305 5.41111 13.305 5.22013 13.3686 4.96549C13.4323 4.77451 13.6869 4.4562 14.1326 3.88326C14.3872 3.56496 14.5145 3.37399 14.7055 3.18301C15.6604 1.9098 16.106 1.08222 15.9787 0.700256L15.915 0.636602C15.8514 0.572941 15.7877 0.509283 15.6604 0.509283C15.5331 0.445623 15.3421 0.445623 15.1511 0.509283H12.732C12.6684 0.509283 12.6684 0.509283 12.541 0.509283C12.4774 0.509283 12.4137 0.509283 12.4137 0.509283H12.3501H12.2864L12.2227 0.572937C12.1591 0.636598 12.1591 0.636596 12.1591 0.700256C11.9044 1.40052 11.5861 1.97346 11.2678 2.61006C11.0769 2.92836 10.8859 3.24667 10.6949 3.50131C10.5039 3.75595 10.3766 3.94693 10.2493 4.07425C10.122 4.20157 9.99464 4.26523 9.93098 4.39255C9.86732 4.45621 9.74 4.51987 9.74 4.45621C9.67634 4.45621 9.61268 4.45621 9.61268 4.39255C9.54902 4.32889 9.48536 4.26522 9.4217 4.20156C9.35804 4.1379 9.35804 4.01058 9.29438 3.88326C9.29438 3.75594 9.29438 3.62862 9.29438 3.56496C9.29438 3.5013 9.29438 3.31033 9.29438 3.18301C9.29438 2.99203 9.29438 2.8647 9.29438 2.80104C9.29438 2.61006 9.29438 2.35543 9.29438 2.10079C9.29438 1.84615 9.29438 1.65516 9.29438 1.52784C9.29438 1.40052 9.29438 1.20954 9.29438 1.08222C9.29438 0.89124 9.29438 0.763916 9.29438 0.700256C9.29438 0.636596 9.23073 0.509279 9.23073 0.445619C9.16707 0.381959 9.1034 0.318297 9.03974 0.254637C8.97608 0.190977 8.84876 0.190979 8.7851 0.127318C8.4668 0.0636582 8.08485 0 7.63923 0C6.62067 0 5.9204 0.0636621 5.66576 0.190982C5.53844 0.254643 5.41112 0.318299 5.34746 0.445619C5.22014 0.572939 5.22013 0.636602 5.28379 0.636602C5.6021 0.700262 5.85674 0.827576 5.98406 1.01856L6.04772 1.14588C6.11138 1.20954 6.11137 1.33686 6.17503 1.52784C6.23869 1.71882 6.2387 1.9098 6.2387 2.16444C6.2387 2.5464 6.2387 2.92837 6.2387 3.18301C6.2387 3.50131 6.17503 3.69228 6.17503 3.88326C6.17503 4.07424 6.11138 4.20157 6.04772 4.26523C5.98406 4.39255 5.98406 4.45621 5.9204 4.45621C5.9204 4.45621 5.92039 4.51987 5.85673 4.51987C5.79307 4.51987 5.72942 4.58353 5.6021 4.58353C5.53843 4.58353 5.41112 4.51987 5.34746 4.45621C5.22014 4.39255 5.09282 4.26523 5.02916 4.13791C4.90184 4.01059 4.77451 3.8196 4.64719 3.56496C4.51987 3.31032 4.32888 3.05569 4.20156 2.67372L4.07426 2.41909C4.0106 2.29177 3.88328 2.03712 3.75595 1.71882C3.62863 1.40052 3.50131 1.14588 3.37399 0.827584C3.31033 0.700264 3.24668 0.636598 3.18302 0.572937H3.11935C3.11935 0.572937 3.05569 0.509283 2.99203 0.509283C2.92836 0.509283 2.86471 0.445619 2.80105 0.445619H0.509283C0.254643 0.445619 0.127324 0.509277 0.063664 0.572937L0 0.636602C0 0.636602 0 0.70026 0 0.76392C0 0.82758 3.88456e-06 0.891236 0.063664 1.01856C0.381965 1.78248 0.763924 2.5464 1.14588 3.31033C1.52785 4.01059 1.90981 4.64719 2.16445 5.09281C2.48275 5.53843 2.73739 5.98405 3.05569 6.36601C3.37399 6.74798 3.56497 7.00261 3.62863 7.12993C3.75595 7.25726 3.8196 7.32091 3.88326 7.38457L4.07426 7.57555C4.20158 7.70287 4.39255 7.89386 4.64719 8.08484C4.90183 8.27582 5.22013 8.46679 5.53843 8.65777C5.85673 8.84875 6.2387 8.97608 6.62066 9.1034C7.06628 9.23072 7.44824 9.29438 7.8302 9.23072H8.7851C8.97608 9.23072 9.10341 9.16706 9.23073 9.03974L9.29438 8.97608C9.29438 8.91242 9.35804 8.91242 9.35804 8.84876C9.35804 8.7851 9.35804 8.72144 9.35804 8.59412C9.35804 8.33948 9.35804 8.1485 9.4217 7.95752C9.48536 7.76654 9.48537 7.63922 9.54903 7.5119C9.61269 7.38458 9.67634 7.32091 9.74 7.25725C9.80367 7.19359 9.86733 7.12993 9.86733 7.12993H9.93098C10.0583 7.06627 10.2493 7.12993 10.3766 7.25725C10.5676 7.38457 10.7586 7.57556 10.8859 7.76654C11.0132 7.95752 11.2042 8.1485 11.4588 8.40314C11.7135 8.65778 11.9045 8.84876 12.0318 8.91242L12.2227 9.03974C12.3501 9.1034 12.4774 9.16706 12.6684 9.23072C12.8594 9.29438 12.9867 9.29438 13.114 9.29438L15.2784 9.23072C15.4694 9.23072 15.6604 9.16706 15.7877 9.1034C15.915 9.03974 15.9787 8.97608 15.9787 8.84876C15.9787 8.7851 15.9787 8.65778 15.9787 8.59412C15.8514 8.4668 15.8514 8.40313 15.8514 8.33947Z" fill="#333333"/>
</svg>
