<svg width="16" height="16" viewBox="0 0 16 16" fill="none" xmlns="http://www.w3.org/2000/svg">
<path d="M13.6585 2.33333C12.1533 0.833333 10.1463 0 8.02787 0C3.62369 0 0.0557483 3.55556 0.0557483 7.94444C0.0557483 9.33333 0.445993 10.7222 1.11498 11.8889L0 16L4.23694 14.8889C5.40767 15.5 6.68989 15.8333 8.02787 15.8333C12.4321 15.8333 16 12.2778 16 7.88889C15.9443 5.83333 15.1638 3.83333 13.6585 2.33333ZM11.8746 10.7778C11.7073 11.2222 10.9268 11.6667 10.5366 11.7222C10.2021 11.7778 9.7561 11.7778 9.31011 11.6667C9.03136 11.5556 8.64112 11.4444 8.19512 11.2222C6.18815 10.3889 4.90592 8.38889 4.79443 8.22222C4.68293 8.11111 3.95819 7.16667 3.95819 6.16667C3.95819 5.16667 4.45993 4.72222 4.62718 4.5C4.79443 4.27778 5.01742 4.27778 5.18467 4.27778C5.29617 4.27778 5.46341 4.27778 5.57491 4.27778C5.68641 4.27778 5.85366 4.22222 6.02091 4.61111C6.18815 5 6.5784 6 6.63415 6.05556C6.68989 6.16667 6.68989 6.27778 6.63415 6.38889C6.5784 6.5 6.52265 6.61111 6.41115 6.72222C6.29965 6.83333 6.18815 7 6.1324 7.05556C6.0209 7.16667 5.90941 7.27778 6.02091 7.44444C6.1324 7.66667 6.52265 8.27778 7.13589 8.83333C7.91638 9.5 8.52962 9.72222 8.75261 9.83333C8.97561 9.94445 9.08711 9.88889 9.1986 9.77778C9.3101 9.66667 9.70035 9.22222 9.81185 9C9.92335 8.77778 10.0906 8.83333 10.2578 8.88889C10.4251 8.94444 11.4286 9.44445 11.5958 9.55556C11.8188 9.66667 11.9303 9.72222 11.9861 9.77778C12.0418 9.94444 12.0418 10.3333 11.8746 10.7778Z" fill="#333333"/>
</svg>
