<svg width="58" height="58" viewBox="0 0 58 58" fill="none" xmlns="http://www.w3.org/2000/svg">
<circle cx="29" cy="29" r="29" fill="#626B80" fill-opacity="0.28"/>
<path fill-rule="evenodd" clip-rule="evenodd" d="M40.6002 25.3001C40.6002 28.4331 39.3253 31.2682 37.2659 33.315L37.2551 33.3309L30.9475 42.4938C30.1527 43.6484 28.4475 43.6484 27.6527 42.4938L21.3451 33.3309L21.3343 33.315C19.275 31.2682 18 28.433 18 25.3001C18 19.0592 23.0592 14 29.3001 14C35.541 14 40.6002 19.0592 40.6002 25.3001ZM29.3009 30.7823C32.469 30.7823 35.0373 28.214 35.0373 25.0459C35.0373 21.8777 32.469 19.3094 29.3009 19.3094C26.1327 19.3094 23.5645 21.8777 23.5645 25.0459C23.5645 28.214 26.1327 30.7823 29.3009 30.7823Z" fill="#626B80"/>
</svg>
