<svg width="42" height="42" viewBox="0 0 42 42" fill="none" xmlns="http://www.w3.org/2000/svg">
<path d="M30.9 11.6L29.5 10.9L28.6 12.7L29.9 13.3V29.2C29.3 29.3 28.8 29.3 28.2 29.3L28.3 31.3C28.8 31.3 29.4 31.2 29.9 31.2V38L20.8 33.6L12.1 38V27.1C12.7 27.2 13.3 27.4 13.9 27.5L14.4 25.6C13.6 25.4 12.8 25.2 12 25.1V13.4L13.3 12.7L12.4 10.9L11 11.6L0 6.19998V35.3L11.1 40.7L20.8 35.8L30.8 40.7L42 35.3V6.19998L30.9 11.6ZM10.1 25.6L10 26.9C10 26.9 10 26.9 10.1 26.9V38L2 34.1V30.3C2.2 30 2.5 29.6 3 29.1L2.1 28.1V9.39998L10.2 13.3V25.6H10.1ZM40 23.9C39.8 24.1 39.5 24.5 39 25L40 26.1V34.1L31.9 38V31C32.1 30.9 32.4 30.9 32.6 30.8L32.1 28.9C32 28.9 32 28.9 31.9 29V13.4L40 9.39998V23.9Z" fill="#626B80"/>
<path d="M21.8 30.5C23.2 30.9 24.7 31.2 26.1 31.3L26.3 29.3C25 29.2 23.7 28.9 22.4 28.6L21.8 30.5Z" fill="#626B80"/>
<path d="M8.1 26.9L7.9 24.9C6.3 25.1 4.8 25.5 3.5 26.2L4.5 27.9C5.6 27.4 6.8 27.1 8.1 26.9Z" fill="#626B80"/>
<path d="M38.6 27.8L37.4 26.2C36.3 27 35.2 27.6 34 28.1L34.8 29.9C36.1 29.5 37.4 28.7 38.6 27.8Z" fill="#626B80"/>
<path d="M16.5 26.3L15.8 28.2C16.5 28.5 17.2 28.8 17.9 29.1C18.5 29.4 19.1 29.6 19.6 29.8L20.3 27.9C19.8 27.7 19.2 27.5 18.7 27.2C18 26.9 17.3 26.6 16.5 26.3Z" fill="#626B80"/>
<path d="M18.2 22.5C18.8 23.8 19.9 24.5 21 24.5C22.1 24.5 23.2 23.8 23.8 22.4L28.1 12.4C28.5 11.4 28.8 10.4 28.8 9.19999C28.8 4.79999 25.3 1.29999 20.9 1.29999C16.5 1.29999 13 4.79999 13 9.19999C13 10.8 13.5 12.2 14.3 13.5L18.2 22.5ZM20.8 3.29999C24.1 3.29999 26.7 5.89999 26.7 9.19999C26.7 9.99999 26.5 10.8 26.2 11.6L25 14.4L21.9 21.7C21.7 22.2 21.3 22.6 20.9 22.6C20.5 22.6 20.2 22.3 19.9 21.8L15.9 12.8L15.8 12.7L15.7 12.6C15.1 11.6 14.8 10.5 14.8 9.39999C14.9 5.99999 17.6 3.29999 20.8 3.29999Z" fill="#626B80"/>
<path d="M20.8 13.7C23.3 13.7 25.3 11.7 25.3 9.19998C25.3 6.69998 23.3 4.69998 20.8 4.69998C18.3 4.69998 16.3 6.69998 16.3 9.19998C16.3 11.7 18.3 13.7 20.8 13.7ZM20.8 6.69998C22.2 6.69998 23.3 7.79998 23.3 9.19998C23.3 10.6 22.2 11.7 20.8 11.7C19.4 11.7 18.3 10.6 18.3 9.19998C18.3 7.79998 19.4 6.69998 20.8 6.69998Z" fill="#626B80"/>
</svg>
