<svg width="31" height="31" viewBox="0 0 31 31" fill="none" xmlns="http://www.w3.org/2000/svg">
<g clip-path="url(#clip0_2203_66)">
<path d="M29.1056 31L17.782 19.6764C16.9209 20.4226 15.9162 21.0039 14.768 21.4201C13.6199 21.8363 12.4 22.0445 11.1083 22.0445C8.00833 22.0445 5.38199 20.968 3.22917 18.8153C1.07639 16.6625 0 14.0648 0 11.0223C0 7.97963 1.07639 5.38194 3.22917 3.22916C5.38199 1.07639 7.99396 0 11.0653 0C14.1079 0 16.6984 1.07639 18.8368 3.22916C20.9752 5.38194 22.0444 7.97963 22.0444 11.0223C22.0444 12.2564 21.8435 13.4476 21.4417 14.5958C21.0398 15.744 20.4371 16.8203 19.6333 17.825L31 29.1056L29.1056 31ZM11.0653 19.4611C13.3903 19.4611 15.3708 18.6358 17.0069 16.9854C18.6431 15.3349 19.4611 13.3472 19.4611 11.0223C19.4611 8.69726 18.6431 6.70952 17.0069 5.05904C15.3708 3.40857 13.3903 2.58333 11.0653 2.58333C8.71159 2.58333 6.70948 3.40857 5.059 5.05904C3.40856 6.70952 2.58333 8.69726 2.58333 11.0223C2.58333 13.3472 3.40856 15.3349 5.059 16.9854C6.70948 18.6358 8.71159 19.4611 11.0653 19.4611Z" fill="#626B80"/>
</g>
<defs>
<clipPath id="clip0_2203_66">
<rect width="31" height="31" fill="white"/>
</clipPath>
</defs>
</svg>
