<svg width="35" height="36" viewBox="0 0 35 36" fill="none" xmlns="http://www.w3.org/2000/svg">
<path d="M12.0859 0.95224C-0.392644 5.43972 -4.09203 21.4583 5.18404 30.9445C8.773 34.6367 12.0859 36 17.6074 36C21.3067 36 22.7975 35.716 24.7853 34.7503C28.7055 32.7622 31.0798 30.4901 33.0675 26.5706C34.7791 23.3328 34.9448 22.5376 35 18.1637C35 13.6762 34.8344 13.0514 33.0123 9.64318C28.816 1.80429 19.9816 -1.88794 12.0859 0.95224ZM18.4356 2.65635C17.8282 5.38291 16.6687 6.63259 13.0798 8.62071C8.773 10.9497 5.29447 14.4715 4.35582 17.3116C2.92024 21.7991 4.96319 26.6842 9.82208 30.3197C11.8098 31.7965 12.6932 32.0806 15.3436 32.0806C20.589 32.0806 22.3006 30.5469 28.4847 20.1518C29.4785 18.5045 33.2883 16.5164 34.0061 17.2548C34.227 17.4253 34.0613 19.1862 33.7301 21.1175C32.0736 30.3765 23.6258 36.4544 14.7914 34.7503C2.86503 32.4782 -2.76688 18.6181 4.07975 8.4503C6.8957 4.36045 12.4724 1.17945 17 1.12265C18.7117 1.12265 18.8221 1.23626 18.4356 2.65635ZM20.9202 2.54274C20.9202 3.79242 18.9877 7.48464 17.8282 8.56391C17.2209 9.07514 15.2331 10.3248 13.3006 11.3473C9.32515 13.5058 6.73006 16.4028 6.23312 19.1862C5.73619 21.7991 7.83435 25.7754 10.8712 28.0475C15.8405 31.6829 20.4233 29.8084 24.2331 22.5944C25.2822 20.5494 26.4969 18.4477 26.9387 17.9365C27.8773 16.7436 31.5767 14.7555 32.7914 14.7555C34.1718 14.7555 33.7301 15.7212 32.1288 16.1756C29.589 16.8004 27.546 18.7317 25.8896 22.0831C21.6933 30.7173 16.1166 33.2734 10.4294 29.2404C9.26993 28.3883 7.66871 26.741 6.84049 25.5482C2.92024 19.6974 5.4049 13.9602 13.7975 9.64318C17.0552 7.93907 18.9325 5.83734 19.5399 3.22438C19.9816 1.57708 20.9202 1.12265 20.9202 2.54274ZM26.773 4.13324C31.0245 7.14382 34.7239 13.6194 32.2393 13.6194C29.5337 13.6194 25.1166 17.4821 23.7914 21.0039C22.7975 23.6736 19.9264 27.0819 17.9386 28.0475C15.3436 29.2972 12.8589 28.5587 10.1534 25.8322C7.50306 23.0488 6.78527 20.4926 8 17.8229C8.93865 15.778 12.2515 12.8242 14.8466 11.8017C18.2699 10.4384 22.0245 5.89415 22.0245 3.11077C22.0245 1.74749 23.9018 2.14511 26.773 4.13324Z" fill="#9FDB3D"/>
</svg>
