<svg width="60" height="50" viewBox="0 0 60 50" fill="none" xmlns="http://www.w3.org/2000/svg">
<path d="M10.7989 8.33861C10.8903 8.70946 11.8961 10.2856 13.0848 11.8616C15.8278 15.1993 17.3821 14.1794 14.822 10.7491C12.9933 8.2459 10.7989 6.85523 10.7989 8.33861Z" fill="#9FDB3D"/>
<path d="M45.6352 10.1001C43.6236 12.696 43.1665 14.1794 44.4465 14.1794C45.178 14.1794 49.2011 9.17301 49.2011 8.15319C49.2011 6.94794 47.281 7.96776 45.6352 10.1001Z" fill="#9FDB3D"/>
<path d="M17.565 16.9608C15.1877 17.8879 13.9077 19.7421 15.5535 19.7421C17.1078 19.7421 20.5823 17.3316 19.9423 16.6826C19.668 16.4045 18.5708 16.5899 17.565 16.9608Z" fill="#9FDB3D"/>
<path d="M40.0577 17.0535C40.0577 17.9806 43.075 19.7421 44.7208 19.7421C45.5437 19.7421 45.5437 19.464 44.7208 18.4442C43.4408 16.8681 40.0577 15.8482 40.0577 17.0535Z" fill="#9FDB3D"/>
<path d="M11.4389 31.8873C6.86726 32.9999 4.21568 34.4832 4.85572 35.5958C5.22145 36.0593 6.22722 35.9666 7.41586 35.3176C8.51306 34.6687 11.0732 34.0197 13.0848 33.7416C15.0963 33.3707 16.6507 32.8144 16.5592 32.2582C16.3764 31.0529 15.462 30.9602 11.4389 31.8873Z" fill="#9FDB3D"/>
<path d="M43.3493 31.5165C42.3435 32.629 43.8979 33.6488 46.5495 33.6488C48.1039 33.6488 50.4811 34.2978 51.9441 35.0395C53.6813 35.9666 54.7785 36.0593 55.1443 35.5031C56.15 33.927 44.8123 30.1258 43.3493 31.5165Z" fill="#9FDB3D"/>
<path d="M11.8047 37.9136C10.2503 39.2115 8.97023 40.8803 8.97023 41.622C8.97023 43.4763 9.4274 43.2908 12.4447 40.1386C13.9991 38.5625 15.9192 37.3573 16.6507 37.3573C17.4736 37.3573 18.1136 36.8937 18.1136 36.4302C18.1136 34.6687 14.6391 35.5031 11.8047 37.9136Z" fill="#9FDB3D"/>
<path d="M41.8864 36.4302C41.8864 36.8937 42.5264 37.3573 43.3493 37.3573C44.0808 37.3573 46.0009 38.5625 47.5553 40.1386C50.5726 43.2908 51.0298 43.4763 51.0298 41.622C51.0298 39.8605 45.818 35.5031 43.6236 35.5031C42.7093 35.5031 41.8864 35.8739 41.8864 36.4302Z" fill="#9FDB3D"/>
<path fill-rule="evenodd" clip-rule="evenodd" d="M17.3821 21.7818C14.9134 24.285 16.8335 28.0862 20.5823 28.0862C23.2339 28.0862 24.9711 25.0267 23.5996 22.5235C22.5024 20.4838 19.1194 20.0203 17.3821 21.7818ZM18.5708 25.3048C19.5765 26.9736 21.771 26.3246 21.771 24.3777C21.771 23.3579 21.2224 22.5235 20.4909 22.5235C18.8451 22.5235 17.8393 24.0068 18.5708 25.3048Z" fill="#9FDB3D"/>
<path fill-rule="evenodd" clip-rule="evenodd" d="M36.4004 22.4308C34.9374 25.3048 36.7661 28.2716 39.7834 27.9007C42.8922 27.5299 44.538 24.934 43.1665 22.7089C41.7035 20.2984 37.6804 20.113 36.4004 22.4308ZM39.8748 26.0465C40.6977 25.8611 41.4292 25.1194 41.4292 24.3777C41.4292 23.636 40.6977 22.8943 39.8748 22.7089C38.6862 22.5235 38.229 22.987 38.229 24.3777C38.229 25.7684 38.6862 26.2319 39.8748 26.0465Z" fill="#9FDB3D"/>
<path fill-rule="evenodd" clip-rule="evenodd" d="M6.59296 1.66338C4.12424 3.33218 3.20991 9.0803 4.39855 14.8284C5.22145 18.5369 5.13002 19.7421 3.48421 23.7287C0.466896 30.7748 0.101161 37.0792 2.387 41.7147C5.77005 48.2973 12.6276 51.264 19.4851 48.9462C22.5939 47.8337 24.4225 47.741 26.7998 48.39C28.8114 48.9462 31.1886 48.9462 33.2002 48.39C35.5774 47.741 37.4061 47.8337 40.5149 48.9462C47.3724 51.264 54.2299 48.2973 57.613 41.7147C59.8988 37.0792 59.5331 30.7748 56.5158 23.7287C54.87 19.7421 54.7785 18.5369 55.6014 14.8284C56.8815 8.89487 55.8757 3.33218 53.2242 1.57067C51.3955 0.272705 50.8469 0.272705 48.561 1.57067C47.1895 2.40507 44.9037 3.98116 43.5322 5.00099C41.4292 6.76251 40.7892 6.85522 38.1376 5.92811C34.3888 4.63015 25.6112 4.63015 21.8624 5.92811C19.4851 6.76251 18.5708 6.6698 16.6507 5.27913C12.3533 2.21965 9.4274 0.272705 8.97023 0.272705C8.69593 0.272705 7.59873 0.921685 6.59296 1.66338ZM19.0279 10.9345C19.0279 10.1928 17.1078 8.15318 14.822 6.29895C10.4332 2.96134 7.78159 2.21965 6.59296 4.16659C5.31288 6.20624 5.95292 15.9409 7.50729 18.3514C9.33597 21.1328 9.4274 22.6162 7.69016 21.9672C6.22722 21.4109 3.66708 27.2517 2.93561 33.1853C1.5641 43.1981 11.3475 50.615 20.308 46.443C23.1425 45.2378 23.9654 43.0127 23.8739 37.0792C23.7825 32.629 24.7883 31.2383 25.7026 34.576C25.9769 35.7812 26.6169 36.2448 27.6227 35.8739C29.4514 35.1322 29.5428 32.1655 27.7142 31.4238C25.154 30.4966 26.3426 29.4768 30 29.4768C33.6573 29.4768 34.846 30.4966 32.2858 31.4238C30.4572 32.1655 30.5486 35.1322 32.3773 35.8739C33.383 36.2448 34.0231 35.7812 34.2974 34.576C35.2117 31.2383 36.2175 32.629 36.1261 37.1719C36.0346 43.0127 36.8575 45.2378 39.692 46.443C48.6525 50.615 58.4359 43.1981 57.0644 33.1853C56.3329 27.2517 53.7728 21.4109 52.3098 21.9672C50.664 22.6162 50.664 21.5963 52.4927 17.9806C53.9556 15.0138 54.5042 6.02082 53.407 4.07388C53.0413 3.51761 52.0355 3.05405 51.1212 3.05405C48.9268 3.05405 40.972 9.26572 40.972 10.9345C40.972 11.6762 40.5149 12.3252 39.9663 12.3252C39.4177 12.3252 39.1434 11.4908 39.4177 10.5637C39.9663 8.24589 36.2175 6.76251 30 6.76251C23.7825 6.76251 20.0337 8.24589 20.5823 10.5637C20.8566 11.4908 20.5823 12.3252 20.0337 12.3252C19.4851 12.3252 19.0279 11.6762 19.0279 10.9345ZM34.7545 46.0722C35.5775 45.2378 33.8402 39.0261 32.5601 38.1917C31.9201 37.7281 30.7315 37.3573 30 37.3573C29.2685 37.3573 28.0799 37.7281 27.4398 38.1917C26.1598 39.0261 24.4225 45.2378 25.2454 46.0722C25.8855 46.8139 34.1145 46.8139 34.7545 46.0722Z" fill="#9FDB3D"/>
</svg>
