<svg width="50" height="62" viewBox="0 0 50 62" fill="none" xmlns="http://www.w3.org/2000/svg">
<path d="M18.0205 1.62313C17.4389 2.29642 15.597 3.25825 13.9491 3.64299C12.3012 4.12391 10.4594 5.37429 9.87773 6.62468C9.29611 7.77888 7.84205 9.414 6.6788 10.1835C5.32167 11.1453 4.64311 12.6842 4.64311 14.8965C4.64311 16.724 4.25536 18.4553 3.67374 18.7438C2.41355 19.5133 2.41355 23.7454 3.67374 24.5148C4.25536 24.8034 4.64311 26.5347 4.64311 28.266C4.64311 30.4782 5.32167 31.921 6.77573 32.979L9.0053 34.5179H5.9033C0.862551 34.6141 -1.8517 39.2309 2.31661 40.7698C3.28599 41.1546 3.67374 43.0783 3.67374 47.7912C3.67374 53.1775 3.28599 54.7165 1.73499 56.063C0.0870512 57.4096 -0.00988632 58.0829 0.765613 59.6218C1.73499 61.4493 2.8013 61.5455 25 61.5455C47.1987 61.5455 48.265 61.4493 49.2343 59.6218C50.0098 58.0829 49.9129 57.4096 48.265 56.063C46.714 54.7165 46.3262 53.1775 46.3262 47.7912C46.3262 43.0783 46.714 41.1546 47.6833 40.7698C51.8517 39.2309 49.1374 34.6141 44.0967 34.5179H40.9947L43.2242 32.979C44.6783 31.921 45.3568 30.4782 45.3568 28.266C45.3568 26.5347 45.7446 24.8034 46.3262 24.5148C47.5864 23.7454 47.5864 19.5133 46.3262 18.7438C45.8415 18.4553 45.3568 16.724 45.3568 14.8965C45.3568 12.6842 44.6783 11.1453 43.3212 10.1835C42.1579 9.414 40.7038 7.77888 40.1222 6.62468C39.5406 5.47048 37.7957 4.12391 36.3417 3.73917C34.7907 3.35444 32.9488 2.48879 32.0764 1.8155C30.0407 0.0841963 19.3776 -0.0119874 18.0205 1.62313ZM31.7856 4.12391C33.1427 4.98956 34.8876 5.75903 35.857 5.75903C36.8263 5.75903 38.1835 7.00941 38.959 8.54835C39.8314 10.0873 41.0916 11.53 41.964 11.8186C42.7395 12.2033 43.4181 13.5499 43.4181 14.8003C43.4181 16.1469 43.9028 18.3591 44.5813 19.7056C45.4538 21.5331 45.4538 22.3988 44.5813 23.2644C43.9028 23.9377 43.4181 25.7652 43.4181 27.4003C43.4181 30.7668 39.2498 34.6141 35.5662 34.6141C33.6274 34.6141 33.7243 34.4217 36.4386 31.3439C39.5406 27.8812 41.1885 22.9759 39.9283 20.956C39.5406 20.2827 38.7651 21.5331 37.9896 24.1301C37.311 26.5347 35.3723 29.7087 33.7243 31.2477C30.9132 33.9408 30.1377 34.1332 21.6072 34.4217C13.4644 34.8065 12.3012 34.6141 9.58692 32.5942C7.35736 30.9591 6.58186 29.6126 6.58186 27.4003C6.58186 25.7652 6.09717 23.9377 5.41861 23.2644C4.54617 22.3988 4.54617 21.5331 5.41861 19.7056C6.09717 18.3591 6.58186 16.1469 6.58186 14.8003C6.58186 13.5499 7.26042 12.2033 8.03592 11.8186C8.90836 11.53 10.1685 10.0873 11.041 8.54835C11.8165 7.00941 13.2705 5.75903 14.2399 5.75903C15.2093 5.75903 17.0511 4.98956 18.1174 4.02772C20.8317 1.91168 28.6836 1.91168 31.7856 4.12391ZM47.1017 37.692C46.714 38.6538 41.4793 38.9424 25 38.9424C8.52061 38.9424 3.28599 38.6538 2.99517 37.692C2.60742 36.8263 7.4543 36.5378 25 36.5378C42.5457 36.5378 47.3925 36.8263 47.1017 37.692ZM44.3875 55.7745H5.61249V41.347H44.3875V55.7745ZM47.2956 58.66C47.2956 59.2371 39.2498 59.6218 25 59.6218C10.7502 59.6218 2.70436 59.2371 2.70436 58.66C2.70436 58.0829 10.7502 57.6982 25 57.6982C39.2498 57.6982 47.2956 58.0829 47.2956 58.66Z" fill="#9FDB3D"/>
<path d="M21.0255 6.72086C15.2093 8.45217 9.48998 15.0888 9.48998 20.0904C9.48998 23.3606 11.1379 22.3988 11.8165 18.7438C12.592 14.8965 17.245 9.79874 20.9286 9.02927C25.3877 8.06743 26.0663 7.6827 25.4847 6.72086C24.8061 5.66284 24.5153 5.66284 21.0255 6.72086Z" fill="#9FDB3D"/>
<path fill-rule="evenodd" clip-rule="evenodd" d="M13.1736 44.4248C12.8828 45.0981 12.7859 47.2141 12.7859 49.0416C12.8828 51.831 13.2705 52.5042 15.2093 52.6966C16.4695 52.889 17.9235 52.6004 18.5052 52.0233C19.8623 50.6768 30.1377 50.6768 31.4948 52.0233C32.0764 52.6004 33.5305 52.889 34.7907 52.6966C36.7294 52.5042 37.1172 51.831 37.2141 49.0416C37.2141 47.2141 37.1172 45.0981 36.8264 44.4248C36.3417 43.0783 33.1427 42.8859 32.2703 44.2325C31.9795 44.7134 28.6836 45.1943 25 45.1943C21.3164 45.1943 18.0205 44.7134 17.7297 44.2325C16.8572 42.8859 13.6583 43.0783 13.1736 44.4248ZM33.6274 45.8676C32.8519 46.637 29.556 47.118 25 47.118C20.4439 47.118 17.148 46.637 16.3725 45.8676C15.2093 44.9057 15.1124 45.0019 15.694 46.5409C15.9848 47.5027 15.7909 48.9454 15.2093 49.6187C14.3369 50.6768 14.4338 50.9653 15.597 50.9653C16.4695 50.9653 17.4389 50.4844 17.7297 50.0035C18.0205 49.4264 21.3164 49.0416 25 49.0416C28.6836 49.0416 31.9795 49.4264 32.2703 50.0035C32.5611 50.4844 33.5305 50.9653 34.4029 50.9653C35.5662 50.9653 35.6631 50.6768 34.7907 49.6187C34.209 48.9454 34.0152 47.5027 34.306 46.5409C34.8876 45.0019 34.7907 44.9057 33.6274 45.8676Z" fill="#9FDB3D"/>
</svg>
