<svg width="60" height="60" viewBox="0 0 60 60" fill="none" xmlns="http://www.w3.org/2000/svg">
<path d="M10.4545 2.63633C8.45454 3.54542 5.45454 5.72724 3.81818 7.63633C1.27272 10.5454 0.909088 11.6363 0.909088 16.1818C0.909088 24.0909 4.63636 27.6363 10.3636 25.4545C12.5455 24.6363 12.7273 24.8181 12.7273 27.0909C12.8182 28.4545 13.3636 31 14 32.8181C14.9091 35.5454 14.9091 36.3636 13.9091 37.8181C12.0909 40.2727 12.4545 45.7272 14.5455 48.4545C15.5455 49.7272 16.3636 52.0909 16.3636 53.8181C16.3636 58.7272 17.3636 59.0909 30 59.0909C42.6364 59.0909 43.6364 58.7272 43.6364 53.8181C43.6364 52.0909 44.4545 49.7272 45.4545 48.4545C47.5455 45.7272 47.9091 40.2727 46.0909 37.8181C45.0909 36.3636 45.0909 35.5454 46 32.8181C46.6364 31 47.1818 28.4545 47.2727 27.0909C47.2727 24.8181 47.4545 24.6363 49.6364 25.4545C55.4545 27.7272 59.0909 24.0909 59.0909 16C59.0909 10.9091 58.9091 10.4545 55.1818 6.81815C51.0909 2.63633 45.2727 0.272694 41.5455 1.27269C40.2727 1.54542 38.0909 2.99997 36.7273 4.45451C34.7273 6.63633 33.5455 7.09088 29.8182 7.09088C26.7273 7.09088 25.0909 6.63633 24.2727 5.54542C22.4545 2.99997 18.8182 0.909058 16.3636 0.909058C15.0909 0.909058 12.4545 1.72724 10.4545 2.63633ZM22.4545 6.90906C24.6364 9.27269 26.3636 10.7272 26.3636 10.0909C26.3636 9.54542 27.9091 9.09088 30 9.09088C32.0909 9.09088 33.6364 9.54542 33.6364 10.0909C33.6364 10.7272 35.3636 9.27269 37.5455 6.90906C42 2.18178 43.7273 1.81815 49 4.54542C54.5455 7.3636 57.2727 11.1818 57.2727 16.2727C57.2727 21.4545 55.7273 23.8181 52.2727 23.8181C48.5454 23.8181 47.2727 21.5454 47.2727 14.3636C47.2727 9.54542 46.9091 7.99997 45.8182 7.54542C45.0909 7.27269 44 7.45451 43.3636 8.09088C42.6364 8.81815 42.7273 9.09088 43.9091 9.09088C45.7273 9.09088 46.0909 12.3636 44.3636 13C43.4545 13.3636 43.4545 13.6363 44.3636 14.6363C45.7273 16.0909 45.8182 26.3636 44.5454 31.0909C43.8182 33.7272 43.2727 34.2727 41.8182 33.9091C39.3636 33.2727 39.5455 33.9091 42.7273 37.0909C47.8182 42.1818 44.9091 50 38 50C31.8182 50 28.7273 44.9091 32.7273 41.3636C33.7273 40.4545 34.5455 38.9091 34.5455 38C34.5455 35.7272 30.7273 34.3636 27.7273 35.4545C25 36.5454 24.8182 39.0909 27.2727 41.3636C31.2727 44.9091 28.1818 50 22 50C15.0909 50 12.1818 42.1818 17.2727 37.0909C20.4545 33.9091 20.6364 33.2727 18.1818 33.9091C16.7273 34.2727 16.1818 33.7272 15.4545 31.0909C14.1818 26.3636 14.2727 16.0909 15.7273 14.6363C16.6364 13.6363 16.6364 13.3636 15.7273 13C13.9091 12.3636 14.2727 9.09088 16.0909 9.09088C17.2727 9.09088 17.3636 8.81815 16.6364 8.09088C16 7.45451 14.9091 7.27269 14.1818 7.54542C13.0909 7.99997 12.7273 9.54542 12.7273 14.3636C12.7273 21.5454 11.4545 23.8181 7.72727 23.8181C4.27272 23.8181 2.72727 21.4545 2.72727 16.2727C2.72727 11.2727 5.36363 7.45451 10.8182 4.54542C16 1.81815 18 2.18178 22.4545 6.90906ZM32.7273 38.0909C32.7273 38.5454 32.0909 39.3636 31.3636 40C30.2727 40.9091 29.7273 40.9091 28.6364 40C26.5455 38.2727 27 37.2727 30 37.2727C31.5455 37.2727 32.7273 37.6363 32.7273 38.0909ZM30.0909 52.7272C30.5455 52.7272 30.9091 52.0909 30.9091 51.3636C30.9091 50.5454 31.4545 50.2727 32.3636 50.6363C34.1818 51.2727 33.7273 55.3636 31.6364 56.7272C29.5455 58 26.9091 56.4545 26.5455 53.6363C26.1818 51.2727 28.4545 49.1818 28.9091 51.3636C29.0909 52.0909 29.6364 52.7272 30.0909 52.7272ZM24.6364 54.9091C25.2727 57.2727 25.1818 57.3636 22 57.0909C19.0909 56.8181 18.6364 56.4545 18.3636 54.2727C18.0909 51.8181 18.2727 51.7272 21 52C23.3636 52.2727 24.0909 52.9091 24.6364 54.9091ZM41.6364 54.2727C41.3636 56.4545 40.9091 56.8181 38 57.0909C35.1818 57.3636 34.6364 57.0909 35 56C35.2727 55.1818 35.6364 54 35.8182 53.3636C36 52.7272 37.4545 52.0909 39.0909 52C41.7273 51.8181 41.9091 52 41.6364 54.2727Z" fill="#9FDB3D"/>
<path d="M17.8182 17.7272C16.8182 18.4545 16.2727 19.2727 16.5455 19.5454C17.1818 20.2727 21.8182 18.0909 21.8182 17.0909C21.8182 15.9091 19.7273 16.2727 17.8182 17.7272Z" fill="#9FDB3D"/>
<path d="M38.1818 17.0909C38.1818 18.0909 42.8182 20.2727 43.4545 19.5454C44.0909 18.9091 40.8182 16.4545 39.3636 16.3636C38.7273 16.3636 38.1818 16.7272 38.1818 17.0909Z" fill="#9FDB3D"/>
<path d="M19.6364 21.7272C17.7273 23.8181 18.3636 26.9091 20.8182 27.7272C24.9091 29 27.7273 24.8181 24.9091 21.7272C24.0909 20.8181 22.9091 20 22.2727 20C21.6364 20 20.4545 20.8181 19.6364 21.7272ZM23.9091 23.3636C24.2727 23.6363 24.0909 24.4545 23.5455 25.1818C22.7273 26.0909 22.1818 26.0909 21.2727 25.3636C20.5455 24.8181 20.2727 24 20.5455 23.5454C21.0909 22.5454 23.0909 22.4545 23.9091 23.3636Z" fill="#9FDB3D"/>
<path d="M35.0909 21.7272C33.1818 23.8181 33.8182 26.9091 36.2727 27.7272C40.3636 29 43.1818 24.8181 40.3636 21.7272C39.5454 20.8181 38.3636 20 37.7273 20C37.0909 20 35.9091 20.8181 35.0909 21.7272ZM39.3636 23.3636C39.7273 23.6363 39.5454 24.4545 39 25.1818C38.1818 26.0909 37.6364 26.0909 36.7273 25.3636C36 24.8181 35.7273 24 36 23.5454C36.5454 22.5454 38.5454 22.4545 39.3636 23.3636Z" fill="#9FDB3D"/>
<path d="M24.5455 43.7272C24.5455 44.1818 25 44.3636 25.4545 44.0909C26 43.8181 26.3636 43.3636 26.3636 43.0909C26.3636 42.9091 26 42.7272 25.4545 42.7272C25 42.7272 24.5455 43.1818 24.5455 43.7272Z" fill="#9FDB3D"/>
<path d="M34.0909 43.6363C34.3636 44.0909 34.8182 44.5454 35.0909 44.5454C35.2727 44.5454 35.4545 44.0909 35.4545 43.6363C35.4545 43.0909 35 42.7272 34.4545 42.7272C34 42.7272 33.8182 43.0909 34.0909 43.6363Z" fill="#9FDB3D"/>
<path d="M18.1818 45.4545C18.1818 45.9091 18.6364 46.3636 19.0909 46.3636C19.6364 46.3636 20 45.9091 20 45.4545C20 44.9091 19.6364 44.5454 19.0909 44.5454C18.6364 44.5454 18.1818 44.9091 18.1818 45.4545Z" fill="#9FDB3D"/>
<path d="M40 45.4545C40 45.9091 40.4545 46.3636 40.9091 46.3636C41.4545 46.3636 41.8182 45.9091 41.8182 45.4545C41.8182 44.9091 41.4545 44.5454 40.9091 44.5454C40.4545 44.5454 40 44.9091 40 45.4545Z" fill="#9FDB3D"/>
</svg>
