<svg width="56" height="56" viewBox="0 0 56 56" fill="none" xmlns="http://www.w3.org/2000/svg">
<path d="M35.4082 5.2127C33.0741 7.46405 33.6793 12.9192 36.532 16.1231L39.0389 18.894L44.4849 16.0365C47.5105 14.3913 50.5361 12.7461 51.1412 12.2265C52.4379 11.1874 52.5243 6.25179 51.1412 4.86634C49.4987 3.22113 37.0506 3.4809 35.4082 5.2127ZM50.2768 8.24336C50.5361 10.2349 49.8445 10.9277 45.09 13.612C40.0762 16.4694 39.5575 16.556 38.1744 15.3438C37.0506 14.3913 36.6184 12.6595 36.6184 9.7154V5.47247L43.3611 5.73225C49.8445 5.99202 50.0174 6.07861 50.2768 8.24336Z" fill="#9FDB3D"/>
<path fill-rule="evenodd" clip-rule="evenodd" d="M17.514 2.35522C12.5002 5.03952 9.82036 9.6288 9.82036 15.6901C9.82036 19.7599 9.64747 20.2794 8.00501 20.2794C5.41165 20.2794 1.43517 24.6955 0.743609 28.2457C-0.0343988 32.1423 1.95384 36.212 5.75743 38.4634C8.26435 40.022 10.2526 40.1952 28.579 40.1952C47.7698 40.1952 48.7207 40.2818 49.5852 41.927C50.2768 43.1392 50.2768 44.1783 49.5852 45.3906C48.7207 46.9492 47.7698 47.1224 37.9151 47.1224C31.691 47.1224 27.023 46.776 26.6772 46.2565C25.8992 45.0442 17.9462 45.1308 15.958 46.4297C14.6613 47.209 13.8833 47.0358 11.9815 45.5638C8.95591 43.1392 3.76919 43.0526 1.78095 45.2174C-0.0343988 47.209 -0.120844 53.4435 1.60806 54.9155C3.5963 56.5607 5.4981 55.2619 5.4981 52.3178C5.4981 49.2871 7.05411 48.9408 9.21525 51.4519C10.0797 52.491 11.7222 53.1837 13.1917 53.1837C14.6613 53.1837 16.0444 53.6166 16.3038 54.0496C16.9953 55.1753 25.9856 55.1753 26.6772 54.0496C27.023 53.5301 31.6046 53.1837 37.5693 53.1837C49.153 53.1837 52.0921 52.2312 54.3397 47.9883C56.0686 44.6113 55.9821 42.1001 53.9075 38.7231C51.487 34.74 48.2021 34.1338 26.9365 34.1338H8.09146L6.70833 31.9691C5.41165 29.9775 5.41165 29.6312 6.70833 27.6396C8.52368 24.8687 12.4137 24.7821 16.0444 27.3798C19.2429 29.6312 25.3805 30.3239 30.2214 29.025C33.5064 28.1591 50.8819 18.1146 54.0803 15.2572C55.2906 14.3047 55.6364 12.5729 55.6364 8.15677C55.6364 4.86634 55.2041 2.00886 54.599 1.40273C53.9075 0.710008 48.8072 0.363647 37.4829 0.363647C22.2685 0.363647 21.1447 0.450238 17.514 2.35522ZM27.9739 3.82726C29.8757 3.82726 31.4317 3.39431 31.4317 2.96135C31.4317 2.44181 29.8757 2.09545 27.9739 2.09545C26.0721 2.09545 24.5161 2.44181 24.5161 2.96135C24.5161 3.39431 26.0721 3.82726 27.9739 3.82726ZM53.9075 13.7851L53.7346 8.15677L53.4752 2.5284L43.4476 2.26863C33.9386 2.09545 33.3335 2.18204 32.9012 3.82726C32.5555 5.29929 31.7775 5.55906 28.0603 5.55906C24.8618 5.55906 23.4787 5.2127 23.1329 4.26021C21.9227 1.14296 15.2664 4.43339 13.0188 9.28244C9.82036 15.9499 12.2408 23.3967 18.4649 26.5139C24.6889 29.7177 29.6163 28.3323 44.0527 19.6733L53.9075 13.7851ZM9.47458 23.743C10.5984 23.743 11.5493 23.3101 11.5493 22.8771C11.5493 22.3576 10.5984 22.0112 9.47458 22.0112C6.36255 22.0112 2.90474 25.3882 2.38607 29.025C1.95384 31.7093 2.29962 32.6618 4.46076 35.0863L7.05411 38.0304L28.3197 38.4634C40.6813 38.7231 49.8445 39.2427 50.3632 39.7622C52.1786 41.6672 52.265 45.0442 50.6225 47.209C48.9801 49.2006 48.2885 49.2871 38.0015 49.5469C32.0368 49.7201 27.1094 50.2396 27.1094 50.6726C27.1094 51.8848 47.0783 51.6251 49.5852 50.3262C53.821 48.1615 54.8584 42.9661 51.8328 38.8963C50.709 37.2511 49.3259 37.1645 29.2706 36.7316L7.91857 36.2986L5.84388 33.8741C4.72009 32.5752 3.76919 30.7568 3.76919 29.8909C3.76919 27.3798 7.14056 23.743 9.47458 23.743ZM14.5749 49.7201C13.8833 49.7201 12.4137 48.7676 11.3764 47.5553C9.30169 45.2174 4.89298 44.6113 3.07763 46.4297C1.8674 47.6419 1.69451 52.8373 2.8183 53.6166C3.25052 53.8764 3.76919 52.8373 3.94208 51.3653C4.11497 49.8067 4.89298 48.1615 5.67099 47.6419C6.96767 46.8626 7.65923 47.1224 9.38814 49.114C11.5493 51.3653 15.8715 52.4044 15.8715 50.586C15.8715 50.0664 15.2664 49.7201 14.5749 49.7201ZM21.5769 53.1837C25.467 53.1837 25.467 53.1837 25.2076 50.3262C24.9483 47.8151 24.6025 47.5553 21.9227 47.2956C18.2056 46.9492 17.6004 47.4687 17.6004 50.7592C17.6004 53.0971 17.7733 53.1837 21.5769 53.1837Z" fill="#9FDB3D"/>
</svg>
