<svg width="55" height="55" viewBox="0 0 55 55" fill="none" xmlns="http://www.w3.org/2000/svg">
<path d="M15.3659 2.42286C12.0864 4.35747 10.4045 6.96499 9.64772 10.9183C9.14318 13.4417 8.63863 14.1147 6.45227 14.7876C3.08863 15.7128 0.818176 19.9185 0.818176 24.9653C0.818176 26.9841 1.91136 32.9561 3.3409 38.3394C4.68636 43.6386 5.86363 49.0218 5.86363 50.2835C5.86363 51.5452 6.28409 52.9752 6.87272 53.564C8.30227 54.9939 47.1523 54.9939 48.5818 53.564C49.1705 52.9752 49.5909 51.377 49.5909 50.0312C49.5909 48.6013 50.7682 43.218 52.1136 38.1712C53.4591 33.0402 54.6364 27.2364 54.6364 25.1335C54.6364 19.9185 52.3659 15.7128 49.0023 14.7035C46.7318 14.1147 46.2273 13.4417 45.8068 10.7501C44.4614 3.01165 36.725 -1.36226 30.25 2.00229C27.9795 3.17988 27.475 3.17988 25.2045 2.00229C21.925 0.320014 18.5614 0.404127 15.3659 2.42286ZM26.2136 5.11449L27.7273 7.04911L29.325 4.94627C31.5114 2.17051 37.4818 2.00229 40.3409 4.5257C42.9477 6.79677 44.7136 11.2548 44.0409 13.7782C43.6205 15.6287 43.7886 15.881 45.8068 15.881C49.0864 15.881 51.0205 17.2269 52.0295 20.1708C53.375 24.0401 53.2068 27.3205 51.1045 34.8907C50.0955 38.5076 48.9182 43.975 48.3295 47.0031L47.4045 52.4705H8.04999L7.125 47.0031C6.53636 43.975 5.35909 38.5076 4.34999 34.8907C2.16363 27.0682 2.07954 23.6195 3.67727 19.6662C4.68636 17.2269 5.44318 16.6381 8.21818 16.2175C11.4136 15.7128 11.4977 15.6287 11.4136 12.4324C11.3295 8.89961 13.6 5.19861 16.8795 3.43222C19.6545 1.91817 24.4477 2.84342 26.2136 5.11449Z" fill="#9FDB3D"/>
<path d="M17.2159 6.96499C13.4318 10.7501 13.4318 19.3297 17.2159 23.1148C19.7386 25.6382 21.4205 25.6382 23.9432 23.1148C27.7273 19.3297 27.7273 10.7501 23.9432 6.96499C22.85 5.87152 21.3364 4.94627 20.5795 4.94627C19.8227 4.94627 18.3091 5.87152 17.2159 6.96499ZM24.1954 11.0025C25.625 14.7876 24.9523 19.4979 22.5977 21.8531C20.4954 23.956 18.225 22.8625 16.8795 19.1615C15.6182 15.6287 15.7023 13.8623 17.2159 10.3295C18.225 7.80613 18.8136 7.38556 20.7477 7.63791C22.5136 7.80613 23.2704 8.56316 24.1954 11.0025Z" fill="#9FDB3D"/>
<path d="M31.5114 6.965C29.1568 9.32018 28.1477 13.7782 28.9886 18.068C29.5773 21.3484 32.6886 25.1336 34.875 25.1336C38.7432 25.1336 41.9386 18.068 40.7614 12.0118C40.1727 8.73139 37.0614 4.94627 34.875 4.94627C34.1182 4.94627 32.6045 5.87152 31.5114 6.965ZM38.4909 11.0025C39.9204 14.7876 39.2477 19.4979 36.8932 21.8531C34.7909 23.956 32.5204 22.8625 31.175 19.1615C29.9136 15.6287 29.9977 13.8623 31.5114 10.3295C32.5204 7.80614 33.1091 7.38557 35.0432 7.63791C36.8091 7.80614 37.5659 8.56316 38.4909 11.0025Z" fill="#9FDB3D"/>
<path d="M5.86363 20.0867C4.01363 21.9372 3.76136 23.956 5.10681 27.4046C6.45227 30.9374 9.22727 33.5449 11.8341 33.5449C15.1136 33.5449 16.2068 31.6944 15.7023 27.0682C15.3659 23.956 14.6932 22.526 12.675 20.7596C9.56363 17.9839 8.13409 17.8157 5.86363 20.0867ZM11.8341 22.526C15.9545 26.7317 14.6091 33.9655 10.1523 31.2739C9.39545 30.8533 8.13409 29.0869 7.20909 27.3205C5.94772 24.7971 5.86363 23.7036 6.62045 22.1055C7.79772 19.4979 8.80681 19.582 11.8341 22.526Z" fill="#9FDB3D"/>
<path d="M42.7795 20.7596C40.7614 22.526 40.0886 23.956 39.7523 27.0682C39.2477 31.6944 40.3409 33.5449 43.6205 33.5449C49.5909 33.5449 53.7114 21.8531 48.75 19.2456C46.3955 17.9839 45.6386 18.1521 42.7795 20.7596ZM48.8341 22.1055C49.5909 23.7036 49.5068 24.7971 48.2455 27.3205C47.3204 29.0869 46.0591 30.8533 45.3023 31.2739C40.8455 33.9655 39.5 26.7317 43.6205 22.526C46.6477 19.5821 47.6568 19.4979 48.8341 22.1055Z" fill="#9FDB3D"/>
<path d="M21.925 29.3392C15.1136 34.3019 10.9091 43.975 13.7682 48.2648C15.6182 51.0406 18.3932 51.6294 22.2614 50.0312C26.2136 48.3489 29.2409 48.3489 33.1932 50.0312C39.1636 52.4705 43.5364 49.1901 42.4432 42.8815C41.2659 35.9001 32.9409 26.8158 27.7273 26.8158C26.4659 26.8158 23.8591 27.9934 21.925 29.3392ZM32.6886 31.0215C36.5568 33.8814 39.0795 37.4983 40.3409 42.0404C42.0227 48.2648 39.3318 50.1994 32.4364 47.8442C27.7273 46.162 27.7273 46.162 23.0182 47.8442C18.0568 49.5265 15.7864 49.1901 14.7773 46.4984C14.1045 44.732 15.45 39.7693 17.6364 36.3207C19.4864 33.2085 25.625 28.4981 27.7273 28.4981C28.4841 28.4981 30.7545 29.6757 32.6886 31.0215Z" fill="#9FDB3D"/>
</svg>
