<svg width="56" height="56" viewBox="0 0 56 56" fill="none" xmlns="http://www.w3.org/2000/svg">
<path d="M16.3422 2.29466C15.8241 4.11018 17.033 8.95157 17.9829 8.95157C18.242 8.95157 18.3283 6.96314 18.3283 4.6289C18.242 0.13333 17.1194 -1.07702 16.3422 2.29466Z" fill="#9FDB3D"/>
<path d="M38.6216 6.35797C38.6216 8.69221 38.7079 10.6806 38.8806 10.6806C39.8305 10.6806 41.0395 5.7528 40.5213 4.02373C39.7442 0.652049 38.7079 1.8624 38.6216 6.35797Z" fill="#9FDB3D"/>
<path d="M29.209 4.36954C28.8635 5.57989 28 6.35797 26.9637 6.35797C24.1141 6.35797 21.9552 8.00058 21.9552 10.2484C21.9552 11.6316 21.4371 12.4097 20.6599 12.4097C19.9691 12.4097 18.5874 13.1878 17.5511 14.2252C16.1695 15.6085 15.8241 16.6459 16.3422 18.9802C16.6876 21.1415 16.5149 21.9196 15.6514 21.9196C13.8379 21.9196 11.5927 24.859 11.5927 27.1932C11.5927 29.2681 7.70677 33.1585 5.63427 33.1585C5.11614 33.1585 4.33895 33.9366 3.82083 34.8876C3.3027 35.8386 2.35281 36.6166 1.66198 36.6166C-0.410525 36.6166 0.1076 40.5935 2.43916 42.409C3.73447 43.4465 4.68437 45.4349 5.11614 47.6827C5.3752 49.6711 6.49781 52.2647 7.4477 53.475L9.08843 55.6364H46.9116L48.5523 53.475C49.5022 52.2647 50.6248 49.6711 50.8839 47.6827C51.3156 45.4349 52.2655 43.4465 53.5608 42.409C55.8924 40.5935 56.4105 36.6166 54.338 36.6166C53.6472 36.6166 52.6973 35.8386 52.1792 34.8876C51.661 33.9366 50.8838 33.1585 50.3657 33.1585C48.2069 33.1585 44.4073 29.2681 44.4073 27.1068C44.4073 24.7725 42.0757 21.9196 40.1759 21.9196C39.4851 21.9196 39.3124 21.055 39.6578 18.9802C40.1759 16.6459 39.8305 15.6085 38.4488 14.2252C37.4126 13.1878 36.0309 12.4097 35.3401 12.4097C34.4766 12.4097 34.0448 11.5452 34.0448 9.90256C34.0448 8.3464 33.1812 6.27152 31.8859 4.88826L29.7271 2.46757L29.209 4.36954ZM32.0586 11.0265C31.7132 11.8045 30.677 12.4097 29.7271 12.4097C28.7772 12.4097 28 12.7555 28 13.2742C28 13.7065 29.7271 14.1388 31.7996 14.1388C38.2761 14.1388 40.435 18.0292 35.5992 21.055C32.5768 22.8706 33.0949 23.3893 38.2761 23.8215C41.8167 24.1674 43.5437 26.3287 42.1621 28.5765C41.2985 29.9597 39.6578 30.1326 28 30.1326C16.3422 30.1326 14.7015 29.9597 13.8379 28.5765C13.1471 27.539 13.1471 26.6745 13.8379 25.5506C14.6151 24.3403 16.3422 23.9945 23.1642 23.8215C31.9723 23.5622 34.9083 21.9196 26.4456 21.9196C21.3507 21.9196 17.6375 20.277 17.6375 18.0292C17.6375 15.9543 20.2281 14.1388 23.3369 14.1388C26.3593 14.1388 27.3092 13.0149 24.9776 12.0639C22.5597 11.1994 23.5959 9.03802 26.7047 8.43285C28.3454 8.17349 29.9861 7.48186 30.3316 6.96314C31.1087 5.66634 32.6631 9.38384 32.0586 11.0265ZM13.5788 32.8991C13.1471 34.023 13.3198 34.1959 14.7015 33.5908C17.5511 32.294 29.6407 32.0346 31.1087 33.245C31.9723 34.023 32.6631 34.023 33.0085 33.4179C33.354 32.9856 36.0309 32.294 38.967 32.0346C43.4574 31.6888 44.6663 31.8617 46.2207 33.245C47.257 34.1095 48.6386 34.8876 49.3295 34.8876C49.934 34.8876 50.4521 35.2334 50.4521 35.7521C50.4521 36.2708 42.4211 36.6166 28 36.6166C13.5788 36.6166 5.54791 36.2708 5.54791 35.7521C5.54791 35.2334 6.06604 34.8876 6.67052 34.8876C7.36135 34.8876 8.74302 34.1095 9.86562 33.1585C12.2835 30.9972 14.356 30.9107 13.5788 32.8991ZM53.9062 39.0373C53.9062 41.5445 51.3156 41.8038 28 41.8038C4.68437 41.8038 2.09375 41.5445 2.09375 39.0373C2.09375 38.6915 13.7516 38.3457 28 38.3457C42.2484 38.3457 53.9062 38.6915 53.9062 39.0373ZM49.5885 44.8297C49.5885 45.9536 47.6887 46.1265 37.499 46.1265C29.9861 46.1265 25.4094 46.4723 25.4094 46.991C25.4094 47.5098 29.8998 47.8556 37.0672 47.8556C49.5022 47.8556 50.1067 48.1149 47.3433 52.0053C46.048 53.9073 45.6162 53.9073 28 53.9073C10.3837 53.9073 9.95197 53.9073 8.65666 52.0053C5.97968 48.2878 6.67052 47.8556 15.565 47.8556C20.8326 47.8556 23.5959 47.5098 23.2505 46.991C22.9915 46.4723 19.1055 46.1265 14.5287 46.1265C7.87948 46.1265 6.41145 45.8671 6.41145 44.8297C6.41145 43.7058 9.3475 43.5329 28 43.5329C46.6525 43.5329 49.5885 43.7058 49.5885 44.8297Z" fill="#9FDB3D"/>
<path d="M12.0245 7.30896C11.2473 8.43285 12.2835 14.1388 13.2334 14.1388C13.5788 14.1388 13.8379 12.4097 13.8379 10.2484C13.7516 6.44442 13.1471 5.40698 12.0245 7.30896Z" fill="#9FDB3D"/>
<path d="M43.0256 11.9774C42.9393 16.1272 44.0619 17.1646 44.9254 13.793C45.5299 11.1994 45.0981 8.77866 43.9755 8.3464C43.4574 8.17349 43.112 9.8161 43.0256 11.9774Z" fill="#9FDB3D"/>
</svg>
