<svg width="60" height="58" viewBox="0 0 60 58" fill="none" xmlns="http://www.w3.org/2000/svg">
<path d="M17.4112 10.1365C20.6952 13.3859 21.9724 12.9346 19.6006 9.41437C18.7795 8.15072 17.32 7.15785 16.2253 7.15785C14.6745 7.15785 14.8569 7.51889 17.4112 10.1365Z" fill="#9FDB3D"/>
<path d="M40.3994 9.41437C38.0276 12.9346 39.3048 13.3859 42.5888 10.1365C45.143 7.51889 45.3255 7.15785 43.7747 7.15785C42.68 7.15785 41.2204 8.15072 40.3994 9.41437Z" fill="#9FDB3D"/>
<path d="M19.4181 20.697C17.2288 21.5093 15.678 23.4048 17.1375 23.4048C18.962 23.4048 22.7021 21.5996 22.7021 20.697C22.7021 19.6139 22.0636 19.6139 19.4181 20.697Z" fill="#9FDB3D"/>
<path d="M37.2978 20.697C37.2978 21.5996 41.038 23.4048 43.0449 23.4048C44.5957 23.4048 41.7678 20.9678 39.396 20.2457C38.1189 19.8846 37.2978 20.0652 37.2978 20.697Z" fill="#9FDB3D"/>
<path d="M19.0532 25.6614C18.141 26.7445 18.141 27.5568 18.8708 29.2718C20.1479 32.0699 23.9793 32.3407 25.4388 29.7231C27.6282 25.7516 21.9724 22.2314 19.0532 25.6614ZM23.888 26.6542C24.709 27.5568 23.5231 29.7231 22.246 29.7231C20.6952 29.7231 19.6918 28.1887 20.4216 27.0153C21.0601 26.0224 22.9758 25.8419 23.888 26.6542Z" fill="#9FDB3D"/>
<path d="M34.5612 26.1127C33.1928 28.64 34.926 31.5283 37.8452 31.5283C40.6731 31.5283 42.7712 27.8276 40.9468 25.6614C39.3048 23.7659 35.7471 23.9464 34.5612 26.1127ZM39.8521 27.6471C40.3082 29.2718 37.2978 30.2647 36.3856 28.7302C35.9295 28.0984 35.8383 27.1958 36.1119 26.7445C36.7505 25.6614 39.3048 26.2932 39.8521 27.6471Z" fill="#9FDB3D"/>
<path d="M25.4388 45.0675C25.4388 45.5188 25.8949 45.9701 26.3511 45.9701C26.8984 45.9701 27.2633 45.5188 27.2633 45.0675C27.2633 44.5259 26.8984 44.1649 26.3511 44.1649C25.8949 44.1649 25.4388 44.5259 25.4388 45.0675Z" fill="#9FDB3D"/>
<path d="M32.7367 45.0675C32.7367 45.5188 33.1928 45.9701 33.6489 45.9701C34.1963 45.9701 34.5612 45.5188 34.5612 45.0675C34.5612 44.5259 34.1963 44.1649 33.6489 44.1649C33.1928 44.1649 32.7367 44.5259 32.7367 45.0675Z" fill="#9FDB3D"/>
<path fill-rule="evenodd" clip-rule="evenodd" d="M8.28888 2.37401C6.73809 5.44288 6.28197 10.0462 7.1942 14.1079C7.92399 17.3573 7.83277 19.6139 6.64686 24.3977C5.18729 30.1744 5.00485 30.5355 2.99794 30.0841C0.534911 29.4523 0.443688 29.6328 1.72081 32.9725C2.4506 34.7777 2.4506 35.5901 1.62959 36.0414C-1.01588 37.7563 5.55218 43.8038 13.1237 46.6019C17.2288 48.1364 17.6849 48.5877 17.9585 51.3858C18.141 53.1007 18.6883 54.9962 19.1444 55.5378C21.425 58.3358 38.575 58.3358 40.8555 55.5378C41.3117 54.9962 41.859 53.1007 42.0415 51.3858C42.3151 48.5877 42.7712 48.1364 46.8763 46.6019C54.4478 43.8038 61.0159 37.7563 58.3704 36.0414C57.5494 35.5901 57.5494 34.7777 58.2792 32.9725C59.5563 29.6328 59.4651 29.4523 57.0021 30.0841C54.9951 30.5355 54.8127 30.1744 53.3531 24.488C52.2584 19.7944 52.076 17.3573 52.7146 13.8372C53.5356 9.59489 52.9882 4.17923 51.5287 1.83244C50.5252 0.298005 48.9744 0.568788 42.5888 3.45714C34.3787 7.06758 25.6213 7.06758 17.4112 3.45714C10.6607 0.388266 9.38356 0.298005 8.28888 2.37401ZM23.067 9.41437C22.7021 8.60202 20.604 7.06758 18.2322 5.89419C11.8466 2.73505 10.2046 2.37401 9.566 4.08897C8.3801 7.24811 9.01867 14.9203 10.8431 18.26C12.6676 21.5093 12.6676 21.5996 10.9344 21.5996C9.10989 21.5996 8.65377 22.412 7.65032 28.2789C7.28543 30.6257 6.55564 31.8894 5.27852 32.1602C3.91017 32.5212 3.72772 32.8822 4.54873 33.8751C5.36974 34.868 5.27852 35.4998 4.45751 36.4927C2.90671 38.2979 5.00485 40.735 10.2958 43.2623C15.0394 45.5188 16.3165 45.5188 16.3165 43.3525C16.3165 41.3668 19.5093 37.1245 20.3303 37.9369C20.6952 38.2979 20.2391 39.7421 19.3269 41.3668C17.8673 43.8941 17.7761 44.3454 19.0532 46.6019C20.604 49.4 25.4388 50.4831 27.8106 48.5877C29.4527 47.2337 29.4527 42.9012 27.7194 41.457C25.8037 39.8323 25.9862 37.2148 28.1755 36.6732C32.6455 35.4998 35.4734 38.8395 32.2806 41.457C30.5473 42.9012 30.5473 47.2337 32.1893 48.5877C34.5611 50.4831 39.396 49.4 40.9468 46.6019C42.2239 44.3454 42.1327 43.8941 40.6731 41.3668C39.7609 39.7421 39.3048 38.2979 39.6697 37.9369C40.4907 37.1245 43.6835 41.3668 43.6835 43.3525C43.6835 45.5188 44.9606 45.5188 49.7042 43.2623C54.9951 40.735 57.0933 38.2979 55.5425 36.4927C54.7215 35.4998 54.6303 34.868 55.4513 33.8751C56.2723 32.8822 56.0898 32.5212 54.7215 32.1602C53.4444 31.8894 52.7146 30.6257 52.3497 28.2789C51.3462 22.412 50.8901 21.5996 49.0656 21.5996C47.3324 21.5996 47.3324 21.5093 49.1569 18.26C50.3428 16.0034 50.9813 13.1151 50.9813 9.86567C50.9813 2.37401 50.434 2.01296 43.7747 4.90132C40.6731 6.34549 37.754 8.24098 37.2066 9.14359C36.6593 10.0462 35.9295 10.5878 35.3822 10.317C34.926 9.95594 34.7436 9.32411 35.0173 8.8728C35.3822 8.4215 33.1928 8.06045 30 8.06045C26.8072 8.06045 24.6178 8.4215 24.9827 8.8728C25.2564 9.32411 25.0739 9.95594 24.5266 10.317C23.9793 10.5878 23.3407 10.2267 23.067 9.41437ZM28.9053 39.8323C29.7263 40.6447 30.2737 40.6447 31.0947 39.8323C31.9157 39.02 31.7332 38.7492 30 38.7492C28.2668 38.7492 28.0843 39.02 28.9053 39.8323ZM30.9122 51.7468C30.9122 52.5591 30.5473 53.191 30.0912 53.191C29.6351 53.191 29.0878 52.5591 28.9053 51.7468C28.5404 49.7611 27.2633 51.2052 27.2633 53.7325C27.2633 55.8988 29.179 57.0722 31.3683 56.2598C32.9191 55.628 33.1928 51.8371 31.8245 50.9344C31.3683 50.6637 30.9122 51.0247 30.9122 51.7468ZM25.4388 53.8228C25.4388 53.1007 24.8003 52.1981 23.9793 51.9273C21.3338 50.9345 19.783 51.2955 20.1479 52.9202C20.5128 54.9962 25.4388 55.7183 25.4388 53.8228ZM34.5612 53.7325C34.5612 55.7183 39.4872 54.9962 39.8521 52.9202C40.0345 51.9273 39.5784 51.3857 38.4837 51.476C35.8383 51.5663 34.5612 52.3786 34.5612 53.7325Z" fill="#9FDB3D"/>
</svg>
